<?xml version="1.0" standalone="no"?>
<!DOCTYPE svg PUBLIC "-//W3C//DTD SVG 20010904//EN"
 "http://www.w3.org/TR/2001/REC-SVG-20010904/DTD/svg10.dtd">
<svg version="1.0" xmlns="http://www.w3.org/2000/svg"
 width="225.000000pt" height="225.000000pt" viewBox="0 0 225.000000 225.000000"
 preserveAspectRatio="xMidYMid meet">
<metadata>
Created by potrace 1.14, written by Peter Selinger 2001-2017
</metadata>
<g transform="translate(0.000000,225.000000) scale(0.100000,-0.100000)"
fill="#000000" stroke="none">
<path d="M673 2078 c-30 -29 -69 -72 -85 -96 -17 -24 -32 -41 -35 -38 -5 5 25
53 84 135 l18 24 -25 -13 c-14 -7 -53 -41 -88 -76 -76 -76 -112 -150 -120
-241 -5 -71 -19 -67 -23 6 -2 23 -7 45 -11 47 -4 3 -8 -45 -8 -106 0 -91 4
-120 21 -161 20 -46 20 -51 6 -67 -9 -10 -23 -37 -31 -60 l-15 -42 25 6 26 7
-26 -39 c-14 -22 -32 -59 -40 -82 -23 -65 -30 -212 -17 -331 20 -168 33 -188
109 -164 l47 15 1 72 c0 61 5 82 38 149 66 137 179 226 355 279 8 2 -16 14
-52 26 -65 21 -182 81 -174 88 2 2 23 -5 46 -17 98 -47 184 -60 441 -69 148
-5 271 -14 310 -23 103 -24 192 -64 247 -112 95 -83 138 -183 136 -313 -2 -70
-1 -73 27 -87 16 -8 42 -15 59 -15 28 0 30 3 45 68 40 177 49 384 21 479 -20
68 -66 128 -126 165 -27 17 -49 36 -49 42 0 37 -27 94 -62 132 -72 78 -174
123 -368 164 -178 37 -232 51 -324 87 -115 45 -188 90 -258 158 -31 30 -59 55
-63 55 -3 0 -31 -24 -62 -52z m-43 -117 c-6 -12 -20 -54 -31 -94 -19 -70 -19
-71 -15 -21 4 46 44 149 54 140 2 -3 -1 -14 -8 -25z m860 -200 c100 -28 175
-68 225 -117 62 -62 60 -90 -2 -32 -44 41 -183 116 -278 152 -57 21 -22 19 55
-3z"/>
<path d="M485 778 c-16 -5 -68 -19 -115 -31 -85 -22 -85 -22 -88 -56 -6 -61 6
-98 33 -105 34 -9 43 -30 50 -126 4 -47 11 -99 16 -116 11 -36 53 -78 92 -93
46 -18 509 -14 553 4 50 20 64 62 64 184 0 55 4 111 9 124 17 44 87 53 119 14
8 -9 15 -62 18 -138 8 -204 4 -201 357 -197 256 3 263 4 295 26 50 36 65 75
72 186 6 103 9 108 66 142 15 9 19 22 17 64 -1 29 -6 57 -10 61 -5 5 -53 21
-108 36 l-100 28 -655 2 c-413 1 -666 -2 -685 -9z m465 -83 c54 -28 60 -47 60
-185 0 -124 0 -126 -29 -160 l-29 -35 -215 -3 -216 -3 -36 33 -37 34 1 134 1
135 35 33 35 32 200 0 c159 0 207 -3 230 -15z m901 -23 c29 -32 29 -33 29
-165 l0 -133 -31 -30 -30 -29 -220 0 -221 0 -29 33 c-29 32 -29 33 -29 158 0
69 5 134 11 145 5 11 25 29 42 40 30 18 48 19 240 17 l209 -3 29 -33z"/>
</g>
</svg>
